<?xml version="1.0" encoding="UTF-8" standalone="no"?>
<!-- Created with Inkscape (http://www.inkscape.org/) -->

<svg
   width="64mm"
   height="64mm"
   viewBox="0 0 64 64"
   version="1.1"
   id="svg5"
   xml:space="preserve"
   sodipodi:docname="arrowdownopen.svg"
   inkscape:version="1.3.2 (091e20e, 2023-11-25)"
   xmlns:inkscape="http://www.inkscape.org/namespaces/inkscape"
   xmlns:sodipodi="http://sodipodi.sourceforge.net/DTD/sodipodi-0.dtd"
   xmlns="http://www.w3.org/2000/svg"
   xmlns:svg="http://www.w3.org/2000/svg"><sodipodi:namedview
     id="namedview1"
     pagecolor="#ffffff"
     bordercolor="#000000"
     borderopacity="0.25"
     inkscape:showpageshadow="2"
     inkscape:pageopacity="0.0"
     inkscape:pagecheckerboard="0"
     inkscape:deskcolor="#d1d1d1"
     inkscape:document-units="mm"
     showgrid="false"
     inkscape:zoom="0.42963053"
     inkscape:cx="272.32702"
     inkscape:cy="524.86959"
     inkscape:window-width="1512"
     inkscape:window-height="916"
     inkscape:window-x="0"
     inkscape:window-y="38"
     inkscape:window-maximized="0"
     inkscape:current-layer="svg5" /><defs
     id="defs2"><filter
       style="color-interpolation-filters:sRGB"
       id="filter1"
       x="-0.065065318"
       y="-0.088515194"
       width="1.1301306"
       height="1.1770304"><feGaussianBlur
         stdDeviation="0.4629769"
         id="feGaussianBlur1" /></filter><filter
       style="color-interpolation-filters:sRGB"
       id="filter2"
       x="-0.078476331"
       y="-0.071818594"
       width="1.1569527"
       height="1.1436372"><feGaussianBlur
         stdDeviation="1.6054201"
         id="feGaussianBlur2" /></filter><filter
       inkscape:collect="always"
       style="color-interpolation-filters:sRGB"
       id="filter3"
       x="-0.075076071"
       y="-0.074924076"
       width="1.1501521"
       height="1.1498482"><feGaussianBlur
         inkscape:collect="always"
         stdDeviation="1.5358676"
         id="feGaussianBlur3" /></filter></defs><path
     d="m 29.867313,56.53958 c -3.10294,-0.2925 -6.30037,-1.20849 -8.95197,-2.56454 -2.31274,-1.18274 -3.94845,-2.36455 -5.87298,-4.24325 -1.63923,-1.60021 -2.44665,-2.53692 -3.37565,-3.91621 -2.1360797,-3.171455 -3.4716897,-6.663246 -4.0490097,-10.585687 -0.2201,-1.495429 -0.22269,-4.833411 -0.005,-6.383702 0.50646,-3.605862 1.72503,-7.040502 3.4799497,-9.808523 1.35369,-2.135166 3.60399,-4.666171 5.52417,-6.213256 3.57962,-2.8840894 7.85361,-4.6949404 12.52539,-5.3068894 1.18279,-0.154931 4.61549,-0.155117 5.80039,-3.14e-4 4.48557,0.586027 8.66642,2.305709 12.22911,5.0301264 0.81705,0.624802 3.13665,2.901625 3.9537,3.880786 2.17139,2.602199 3.89693,6.029197 4.79405,9.521176 0.5637,2.194145 0.62952,2.830958 0.62952,6.090391 0,2.859414 -0.012,3.058932 -0.26155,4.35028 -0.67493,3.492522 -1.85809,6.401653 -3.79104,9.321342 -0.96436,1.45665 -1.79503,2.41835 -3.61229,4.18213 -3.58762,3.48203 -8.13879,5.69014 -13.4098,6.50609 -1.19369,0.18479 -4.30741,0.26255 -5.60704,0.14005 z m 6.32888,-5.15532 c 2.14495,-0.5487 3.23319,-0.94576 4.93352,-1.80006 4.7247,-2.37382 8.40225,-6.825061 9.90253,-11.985822 0.67923,-2.33643 0.68329,-2.370136 0.6817,-5.655361 -10e-4,-2.975038 -0.004,-3.004955 -0.27901,-4.108597 -1.01938,-4.08308 -2.82247,-7.335979 -5.5291,-9.974928 -1.60075,-1.560715 -3.1371,-2.645904 -5.11448,-3.61258 -3.18507,-1.557077 -5.64776,-2.052224 -9.70882,-1.952047 -2.4216,0.05974 -3.95583,0.364412 -6.15941,1.223171 -6.10916,2.380814 -10.52566,7.435581 -12.16417,13.922134 -0.34415,1.362417 -0.43776,2.335692 -0.43776,4.551182 0,2.215494 0.0936,3.18877 0.43776,4.551183 1.50361,5.952531 5.24202,10.608555 10.63128,13.240795 1.51674,0.74081 3.19691,1.33034 4.6403,1.62816 1.40446,0.28978 1.30268,0.28378 4.35028,0.25661 2.68052,-0.0239 2.84792,-0.0364 3.81538,-0.28384 z m -11.47729,-15.067382 -7.17807,-7.178545 1.86221,-1.860369 c 1.02421,-1.0232 1.90694,-1.860365 1.96163,-1.860365 0.0547,0 2.45831,2.331593 5.3414,5.181321 l 5.24197,5.18132 4.22831,-4.196302 c 2.32557,-2.307968 4.70824,-4.660339 5.29481,-5.22749 l 1.0665,-1.031187 1.85785,1.859692 c 1.02183,1.022828 1.85786,1.902895 1.85786,1.955703 0,0.09449 -14.2139,14.354774 -14.30808,14.354774 -0.0266,0 -3.27846,-3.230349 -7.22639,-7.178552 z"
     id="glow"
     style="filter:url(#filter3);stroke-width:6;stroke-dasharray:none" /><path
     d="m 29.86731,56.539581 c -3.10294,-0.2925 -6.30037,-1.20849 -8.95197,-2.56454 -2.31274,-1.18274 -3.94845,-2.36455 -5.87298,-4.24325 -1.63923,-1.60021 -2.446647,-2.53692 -3.375647,-3.91621 -2.1360797,-3.171455 -3.4716897,-6.663246 -4.0490097,-10.585687 -0.2201,-1.495429 -0.22269,-4.833411 -0.005,-6.383702 0.50646,-3.605862 1.72503,-7.040501 3.4799497,-9.808523 1.35369,-2.135166 3.603987,-4.666171 5.524167,-6.213256 3.57962,-2.8840885 7.85361,-4.6949395 12.52539,-5.3068885 1.18279,-0.154931 4.61549,-0.155117 5.80039,-3.14e-4 4.48557,0.586027 8.66642,2.305709 12.22911,5.0301255 0.81705,0.624802 3.13665,2.901625 3.9537,3.880786 2.17139,2.602199 3.89693,6.029198 4.79405,9.521176 0.5637,2.194145 0.62952,2.830958 0.62952,6.090391 0,2.859414 -0.012,3.058932 -0.26155,4.35028 -0.67493,3.492522 -1.85809,6.401653 -3.79104,9.321342 -0.96436,1.45665 -1.79503,2.41835 -3.61229,4.18213 -3.58762,3.48203 -8.13879,5.69014 -13.4098,6.50609 -1.19369,0.18479 -4.30741,0.26255 -5.60704,0.14005 z m 6.32888,-5.15532 c 2.14495,-0.5487 3.23319,-0.94576 4.93352,-1.80006 4.7247,-2.37382 8.40225,-6.825061 9.90253,-11.985822 0.67923,-2.33643 0.68329,-2.370136 0.6817,-5.655361 -10e-4,-2.975038 -0.004,-3.004955 -0.27901,-4.108597 -1.01938,-4.083079 -2.82247,-7.335978 -5.5291,-9.974927 -1.60075,-1.560715 -3.1371,-2.645905 -5.11448,-3.612581 -3.18507,-1.557076 -5.64776,-2.052223 -9.70882,-1.952046 -2.4216,0.05974 -3.95583,0.364412 -6.15941,1.223171 -6.10916,2.380814 -10.52566,7.435581 -12.164167,13.922133 -0.34415,1.362417 -0.43776,2.335692 -0.43776,4.551182 0,2.215494 0.0936,3.18877 0.43776,4.551183 1.503607,5.952531 5.242017,10.608555 10.631277,13.240795 1.51674,0.74081 3.19691,1.33034 4.6403,1.62816 1.40446,0.28978 1.30268,0.28378 4.35028,0.25661 2.68052,-0.0239 2.84792,-0.0364 3.81538,-0.28384 z M 24.7189,36.316879 17.54083,29.138334 19.40304,27.277965 c 1.02421,-1.0232 1.90694,-1.860365 1.96163,-1.860365 0.0547,0 2.45831,2.331593 5.3414,5.181321 l 5.24197,5.18132 4.22831,-4.196302 c 2.32557,-2.307968 4.70824,-4.660339 5.29481,-5.22749 l 1.0665,-1.031187 1.85785,1.859692 c 1.02183,1.022828 1.85786,1.902895 1.85786,1.955703 0,0.09449 -14.2139,14.354774 -14.30808,14.354774 -0.0266,0 -3.27846,-3.230349 -7.22639,-7.178552 z"
     id="foreground" /></svg>
