<?xml version="1.0" encoding="UTF-8" standalone="no"?>
<!-- Created with Inkscape (http://www.inkscape.org/) -->

<svg
   width="64mm"
   height="64mm"
   viewBox="0 0 64 64"
   version="1.1"
   id="svg5"
   xml:space="preserve"
   sodipodi:docname="arrowdownclosed.svg"
   inkscape:version="1.3.2 (091e20e, 2023-11-25)"
   xmlns:inkscape="http://www.inkscape.org/namespaces/inkscape"
   xmlns:sodipodi="http://sodipodi.sourceforge.net/DTD/sodipodi-0.dtd"
   xmlns="http://www.w3.org/2000/svg"
   xmlns:svg="http://www.w3.org/2000/svg"><sodipodi:namedview
     id="namedview1"
     pagecolor="#ffffff"
     bordercolor="#000000"
     borderopacity="0.25"
     inkscape:showpageshadow="2"
     inkscape:pageopacity="0.0"
     inkscape:pagecheckerboard="0"
     inkscape:deskcolor="#d1d1d1"
     inkscape:document-units="mm"
     showgrid="false"
     inkscape:zoom="0.42963053"
     inkscape:cx="195.51683"
     inkscape:cy="526.03338"
     inkscape:window-width="1512"
     inkscape:window-height="945"
     inkscape:window-x="0"
     inkscape:window-y="37"
     inkscape:window-maximized="0"
     inkscape:current-layer="svg5" /><defs
     id="defs2"><filter
       style="color-interpolation-filters:sRGB"
       id="filter1"
       x="-0.065065318"
       y="-0.088515194"
       width="1.1301306"
       height="1.1770304"><feGaussianBlur
         stdDeviation="0.4629769"
         id="feGaussianBlur1" /></filter><filter
       style="color-interpolation-filters:sRGB"
       id="filter2"
       x="-0.078476331"
       y="-0.071818594"
       width="1.1569527"
       height="1.1436372"><feGaussianBlur
         stdDeviation="1.6054201"
         id="feGaussianBlur2" /></filter><filter
       inkscape:collect="always"
       style="color-interpolation-filters:sRGB"
       id="filter3"
       x="-0.075076042"
       y="-0.074924109"
       width="1.1501521"
       height="1.1498482"><feGaussianBlur
         inkscape:collect="always"
         stdDeviation="1.5235025"
         id="feGaussianBlur3" /></filter></defs><path
     style=";filter:url(#filter3);stroke-width:6;stroke-dasharray:none"
     d="M 29.88446,56.342001 C 26.8065,56.051859 23.63482,55.143246 21.00455,53.798117 18.71044,52.624895 17.0879,51.452598 15.178868,49.589026 13.552828,48.001703 12.751915,47.072536 11.830388,45.704342 9.7115068,42.558429 8.3866558,39.094749 7.8139848,35.203891 c -0.218331,-1.483391 -0.220896,-4.794497 -0.0049,-6.332305 0.502378,-3.576833 1.711134,-6.983818 3.4519242,-9.729553 1.342792,-2.117974 3.574979,-4.628603 5.479701,-6.163232 3.55079,-2.860867 7.79038,-4.6571377 12.42454,-5.2641607 1.17326,-0.153683 4.57832,-0.153868 5.75368,-3.11e-4 4.44946,0.581308 8.59665,2.2871447 12.13065,4.9896257 0.81047,0.619771 3.1114,2.878263 3.92187,3.84954 2.15391,2.58125 3.86556,5.980655 4.75546,9.444521 0.55915,2.176478 0.62444,2.808164 0.62444,6.041355 0,2.83639 -0.0119,3.034304 -0.25944,4.315254 -0.6695,3.464403 -1.84314,6.350112 -3.76052,9.246293 -0.9566,1.444922 -1.78057,2.398881 -3.5832,4.148458 -3.55873,3.453993 -8.07326,5.644327 -13.30184,6.453711 -1.18407,0.183294 -4.27272,0.260436 -5.56189,0.138914 z m 10.09341,-19.77213 7.88741,-7.887843 -2.11024,-2.108605 -2.11024,-2.108605 -5.80136,5.800765 -5.80136,5.800764 -5.80135,-5.800764 -5.80136,-5.800765 -2.11024,2.108605 -2.110245,2.108605 7.887405,7.887843 c 4.33808,4.338313 7.90918,7.887842 7.93579,7.887842 0.0266,0 3.59772,-3.549529 7.93579,-7.887842 z"
     id="glow" /><path
     style=""
     d="m 29.884455,56.342001 c -3.077959,-0.290142 -6.249642,-1.198755 -8.879903,-2.543884 -2.294114,-1.173222 -3.916658,-2.345519 -5.825686,-4.209091 -1.62604,-1.587323 -2.426953,-2.51649 -3.34848,-3.884684 -2.1188807,-3.145913 -3.4437317,-6.609593 -4.0164027,-10.500451 -0.218331,-1.483391 -0.220896,-4.794497 -0.0049,-6.332305 0.502378,-3.576833 1.711134,-6.983818 3.4519237,-9.729553 1.342792,-2.117974 3.574979,-4.628603 5.4797,-6.163232 3.550794,-2.860867 7.790378,-4.6571377 12.424545,-5.2641607 1.17326,-0.153683 4.578315,-0.153868 5.753671,-3.11e-4 4.449466,0.581308 8.596654,2.2871447 12.130659,4.9896257 0.810467,0.619771 3.111395,2.878263 3.92187,3.84954 2.153905,2.58125 3.865555,5.980655 4.755451,9.444521 0.559155,2.176478 0.624448,2.808164 0.624448,6.041355 0,2.83639 -0.0119,3.034304 -0.259444,4.315254 -0.669501,3.464403 -1.843136,6.350112 -3.760522,9.246293 -0.956596,1.444922 -1.78057,2.398881 -3.583202,4.148458 -3.55873,3.453993 -8.07326,5.644327 -13.30184,6.453711 -1.184069,0.183294 -4.272719,0.260436 -5.561882,0.138914 z m 10.093417,-19.77213 7.887408,-7.887843 -2.11024,-2.108605 -2.110241,-2.108605 -5.801359,5.800765 -5.801358,5.800764 -5.801359,-5.800764 -5.801359,-5.800765 -2.110241,2.108605 -2.11024,2.108605 7.887408,7.887843 c 4.338074,4.338313 7.90918,7.887842 7.935791,7.887842 0.02661,0 3.597716,-3.549529 7.93579,-7.887842 z"
     id="foreground" /></svg>
