<?xml version="1.0" encoding="UTF-8" standalone="no"?>
<!-- Created with Inkscape (http://www.inkscape.org/) -->

<svg
   width="64mm"
   height="64mm"
   viewBox="0 0 64 64"
   version="1.1"
   id="svg5"
   xml:space="preserve"
   sodipodi:docname="eyeclosed.svg"
   inkscape:version="1.3.2 (091e20e, 2023-11-25)"
   xmlns:inkscape="http://www.inkscape.org/namespaces/inkscape"
   xmlns:sodipodi="http://sodipodi.sourceforge.net/DTD/sodipodi-0.dtd"
   xmlns="http://www.w3.org/2000/svg"
   xmlns:svg="http://www.w3.org/2000/svg"><sodipodi:namedview
     id="namedview186"
     pagecolor="#ffffff"
     bordercolor="#000000"
     borderopacity="0.25"
     inkscape:showpageshadow="2"
     inkscape:pageopacity="0.0"
     inkscape:pagecheckerboard="0"
     inkscape:deskcolor="#d1d1d1"
     inkscape:document-units="mm"
     showgrid="false"
     inkscape:zoom="2.3552115"
     inkscape:cx="122.91889"
     inkscape:cy="148.8189"
     inkscape:window-width="1392"
     inkscape:window-height="916"
     inkscape:window-x="103"
     inkscape:window-y="153"
     inkscape:window-maximized="0"
     inkscape:current-layer="layer1" /><defs
     id="defs2"><filter
       inkscape:collect="always"
       style="color-interpolation-filters:sRGB"
       id="filter2"
       x="-0.16312139"
       y="-0.4258664"
       width="1.3273008"
       height="1.8491282"><feGaussianBlur
         inkscape:collect="always"
         stdDeviation="0.32413865"
         id="feGaussianBlur2" /></filter></defs><g
     id="layer1"
     transform="matrix(3.2365575,0,0,3.2365575,-168.96155,-149.68017)"><path
       style="stroke-width:1.54485;stroke-dasharray:none;stroke-opacity:1;filter:url(#filter2)"
       d="m 59.564118,57.832675 c -1.650552,-0.19189 -3.700786,-0.710155 -5.015364,-1.267799 l -1.005332,-0.426462 1.218669,-0.49895 c 4.320989,-1.76911 10.180117,-1.780484 14.552564,-0.02825 l 1.306138,0.523428 -0.988956,0.419515 c -2.832098,1.201376 -6.607409,1.680811 -10.067719,1.27852 z"
       id="glow"
       inkscape:label="glow" /><path
       style="stroke-width:0.143011"
       d="M 59.573152,57.827899 C 57.9226,57.636009 55.872366,57.117744 54.557788,56.5601 l -1.005332,-0.426462 1.218669,-0.49895 c 4.320989,-1.76911 10.180117,-1.780484 14.552564,-0.02825 l 1.306138,0.523428 -0.988956,0.419515 c -2.832098,1.201376 -6.607409,1.680811 -10.067719,1.27852 z"
       id="foreground" /></g></svg>
