<?xml version="1.0" encoding="UTF-8" standalone="no"?>
<!-- Created with Inkscape (http://www.inkscape.org/) -->

<svg
   width="64mm"
   height="64mm"
   viewBox="0 0 64 64"
   version="1.1"
   id="svg5"
   xml:space="preserve"
   xmlns="http://www.w3.org/2000/svg"
   xmlns:svg="http://www.w3.org/2000/svg"><defs
     id="defs2"><filter
       style="color-interpolation-filters:sRGB"
       id="filter1"
       x="-0.065065318"
       y="-0.088515194"
       width="1.1301306"
       height="1.1770304"><feGaussianBlur
         stdDeviation="0.4629769"
         id="feGaussianBlur1" /></filter><filter
       style="color-interpolation-filters:sRGB"
       id="filter3"
       x="-0.057527714"
       y="-0.1077152"
       width="1.1150554"
       height="1.2154304"><feGaussianBlur
         stdDeviation="0.72088033"
         id="feGaussianBlur3" /></filter><filter
       style="color-interpolation-filters:sRGB"
       id="filter2"
       x="-0.095138229"
       y="-0.17881847"
       width="1.1899798"
       height="1.3579956"><feGaussianBlur
         stdDeviation="1.2624225"
         id="feGaussianBlur2" /></filter></defs><path
     id="glow"
     style="fill-opacity:1;stroke-width:6;stroke-linejoin:round;stroke-dasharray:none;stroke-opacity:1;filter:url(#filter2)"
     d="m 52.907394,30.039418 c -0.341521,-6.37e-4 -0.695741,0.08569 -1.034381,0.276015 -0.423622,0.238091 -0.604779,0.508718 -1.380982,2.0579 -1.162307,2.319791 -2.25986,3.850352 -4.052453,5.650627 -2.115496,2.124563 -4.193862,3.475109 -6.900391,4.485933 -5.36601,2.004078 -11.920379,1.682932 -16.901204,-0.828046 -3.966598,-1.999677 -7.155266,-5.28634 -9.120279,-9.399915 -0.814905,-1.705929 -1.254909,-2.11401 -2.279617,-2.11401 -0.606869,0 -1.3331508,0.366354 -1.6941028,0.854292 -0.14008,0.189353 -0.26649,0.605408 -0.295019,0.972841 -0.04397,0.566396 0.02378,0.790459 0.576465,1.907676 0.7690508,1.554601 2.0836988,3.554523 3.3194268,5.050632 l 0.930308,1.126688 -0.373753,0.329408 c -6.4020708,5.647811 -7.6526358,6.795382 -7.8424618,7.195411 -0.59036,1.244089 0.300585,2.671944 1.740255,2.78821 0.559531,0.04518 0.745616,0.0023 1.130307,-0.260632 0.253314,-0.173055 2.2324488,-1.883879 4.3981498,-3.802681 l 3.938427,-3.488655 1.394557,0.942074 c 1.492542,1.008672 3.291167,1.956339 4.781857,2.519432 l 0.919449,0.347509 -2.291382,4.513986 c -2.193532,4.321116 -2.288786,4.540156 -2.235274,5.124842 0.127787,1.396345 1.660963,2.299088 2.851557,1.679622 0.188023,-0.09782 0.46175,-0.31092 0.609045,-0.474203 0.147296,-0.163285 1.363445,-2.449762 2.702238,-5.081403 l 2.434367,-4.785478 1.095918,0.10045 c 1.398434,0.128365 3.934047,0.129433 5.399951,0.0017 l 1.139357,-0.09954 2.30948,4.593622 c 1.269965,2.526417 2.422563,4.779357 2.561968,5.006291 1.021256,1.662471 3.674176,0.931227 3.674176,-1.012662 0,-0.52962 -0.274221,-1.152384 -2.218985,-5.040678 -1.220468,-2.440163 -2.185646,-4.490391 -2.144778,-4.556519 0.04087,-0.06613 0.135475,-0.120362 0.209954,-0.120362 0.275977,0 2.607033,-1.056459 3.678701,-1.666953 0.609141,-0.347009 1.539008,-0.94041 2.066044,-1.318539 l 0.958361,-0.687777 3.682321,3.260605 c 2.025166,1.7933 3.889746,3.440707 4.143853,3.660599 1.754984,1.518665 4.244277,-0.07811 3.372822,-2.163781 -0.123742,-0.296135 -1.3948,-1.504895 -4.146571,-3.94295 -2.182256,-1.933473 -3.986961,-3.529839 -4.010823,-3.547481 -0.02385,-0.01764 0.338627,-0.477831 0.805423,-1.022614 1.110381,-1.295892 2.663185,-3.646987 3.433453,-5.197239 0.507086,-1.020565 0.613659,-1.353287 0.60814,-1.901341 -0.01156,-1.142532 -0.919313,-1.931106 -1.943874,-1.933013 z" /><path
     id="foreground"
     style="fill-opacity:1;stroke-width:0;stroke-linejoin:round;stroke-dasharray:none"
     d="m 52.899581,30.044462 c -0.341521,-6.37e-4 -0.695741,0.08569 -1.034381,0.276015 -0.423622,0.238091 -0.604779,0.508718 -1.380982,2.0579 -1.162307,2.319791 -2.25986,3.850352 -4.052453,5.650627 -2.115496,2.124563 -4.193862,3.475109 -6.900391,4.485933 -5.36601,2.004078 -11.920379,1.682932 -16.901204,-0.828046 -3.966598,-1.999677 -7.155266,-5.28634 -9.120279,-9.399915 -0.814905,-1.705929 -1.254909,-2.11401 -2.279617,-2.11401 -0.606869,0 -1.3331512,0.366354 -1.6941027,0.854292 -0.1400803,0.189353 -0.2664905,0.605408 -0.2950196,0.972841 -0.043974,0.566396 0.023782,0.790459 0.5764656,1.907676 0.7690507,1.554601 2.0836987,3.554523 3.3194267,5.050632 l 0.930308,1.126688 -0.373753,0.329408 c -6.4020708,5.647811 -7.6526362,6.795382 -7.8424617,7.195411 -0.5903598,1.244089 0.300585,2.671944 1.7402544,2.78821 0.5595312,0.04518 0.7456161,0.0023 1.1303072,-0.260632 0.2533143,-0.173055 2.2324491,-1.883879 4.3981501,-3.802681 l 3.938427,-3.488655 1.394557,0.942074 c 1.492542,1.008672 3.291167,1.956339 4.781857,2.519432 l 0.919449,0.347509 -2.291382,4.513986 c -2.193532,4.321116 -2.288786,4.540156 -2.235274,5.124842 0.127787,1.396345 1.660963,2.299088 2.851557,1.679622 0.188023,-0.09782 0.46175,-0.31092 0.609045,-0.474203 0.147296,-0.163285 1.363445,-2.449762 2.702238,-5.081403 l 2.434367,-4.785478 1.095918,0.10045 c 1.398434,0.128365 3.934047,0.129433 5.399951,0.0017 l 1.139357,-0.09954 2.30948,4.593622 c 1.269965,2.526417 2.422563,4.779357 2.561968,5.006291 1.021256,1.662471 3.674176,0.931227 3.674176,-1.012662 0,-0.52962 -0.274221,-1.152384 -2.218985,-5.040678 -1.220468,-2.440163 -2.185646,-4.490391 -2.144778,-4.556519 0.04087,-0.06613 0.135475,-0.120362 0.209954,-0.120362 0.275977,0 2.607033,-1.056459 3.678701,-1.666953 0.609141,-0.347009 1.539008,-0.94041 2.066044,-1.318539 l 0.958361,-0.687777 3.682321,3.260605 c 2.025166,1.7933 3.889746,3.440707 4.143853,3.660599 1.754984,1.518665 4.244277,-0.07811 3.372822,-2.163781 -0.123742,-0.296135 -1.3948,-1.504895 -4.146571,-3.94295 -2.182256,-1.933473 -3.986961,-3.529839 -4.010823,-3.547481 -0.02385,-0.01764 0.338627,-0.477831 0.805423,-1.022614 1.110381,-1.295892 2.663185,-3.646987 3.433453,-5.197239 0.507086,-1.020565 0.613659,-1.353287 0.60814,-1.901341 -0.01156,-1.142532 -0.919313,-1.931106 -1.943874,-1.933013 z" /></svg>
