<?xml version="1.0" encoding="UTF-8" standalone="no"?>
<!-- Created with Inkscape (http://www.inkscape.org/) -->

<svg
   width="64mm"
   height="64mm"
   viewBox="0 0 64 64"
   version="1.1"
   id="svg5"
   xml:space="preserve"
   sodipodi:docname="eyeopeni.svg"
   inkscape:version="1.2.2 (b0a84865, 2022-12-01)"
   xmlns:inkscape="http://www.inkscape.org/namespaces/inkscape"
   xmlns:sodipodi="http://sodipodi.sourceforge.net/DTD/sodipodi-0.dtd"
   xmlns="http://www.w3.org/2000/svg"
   xmlns:svg="http://www.w3.org/2000/svg"><sodipodi:namedview
     id="namedview186"
     pagecolor="#ffffff"
     bordercolor="#000000"
     borderopacity="0.25"
     inkscape:showpageshadow="2"
     inkscape:pageopacity="0.0"
     inkscape:pagecheckerboard="0"
     inkscape:deskcolor="#d1d1d1"
     inkscape:document-units="mm"
     showgrid="false"
     inkscape:zoom="0.78127806"
     inkscape:cx="241.27133"
     inkscape:cy="217.59218"
     inkscape:window-width="1390"
     inkscape:window-height="916"
     inkscape:window-x="0"
     inkscape:window-y="38"
     inkscape:window-maximized="0"
     inkscape:current-layer="svg5" /><defs
     id="defs2" /><g
     id="layer1"
     transform="matrix(3.2365575,0,0,3.2365575,-168.96155,-149.68017)"><path
       style="fill:#000000;stroke-width:0.264583"
       d="m 59.573153,61.932456 c -1.650552,-0.656805 -3.700786,-2.430724 -5.015364,-4.339433 l -1.005332,-1.459698 1.218669,-1.70781 c 4.320989,-6.055324 10.180117,-6.094256 14.552564,-0.0967 l 1.306138,1.791591 -0.988956,1.43592 c -2.832098,4.112081 -6.607409,5.753093 -10.067719,4.37613 z m 4.188039,-1.956296 c 1.790035,-0.747924 2.82391,-2.773379 2.445435,-4.790828 -0.230867,-1.230627 -1.620495,-2.64985 -2.998986,-3.062856 -1.4927,-0.447223 -3.058821,0.01349 -4.215715,1.240154 -3.056221,3.240538 0.624909,8.345153 4.769266,6.61353 z m -3.141733,-2.405199 c -0.709595,-0.709596 -0.807848,-1.359232 -0.355672,-2.351651 0.292769,-0.642558 1.235458,-1.232251 1.96989,-1.232251 0.320658,0 0.330154,0.09049 0.05563,0.530082 -0.486635,0.779225 0.04179,1.464969 1.090592,1.415281 0.652395,-0.03091 0.823464,0.06778 0.823464,0.475047 0,0.803032 -1.179092,1.812923 -2.116666,1.812923 -0.515507,0 -1.057861,-0.240058 -1.467235,-0.649431 z"
       id="path194" /></g><path
     style="mix-blend-mode:normal;fill:#4bb2d2;fill-opacity:1;stroke:none;stroke-width:0.26447854;stroke-opacity:1;stroke-dasharray:none"
     d="m 59.573153,61.932456 c -1.650552,-0.656805 -3.700786,-2.430724 -5.015364,-4.339433 l -1.005332,-1.459698 1.218669,-1.70781 c 4.320989,-6.055324 10.180117,-6.094256 14.552564,-0.0967 l 1.306138,1.791591 -0.988956,1.43592 c -2.832098,4.112081 -6.607409,5.753093 -10.067719,4.37613 z m 4.188039,-1.956296 c 1.790035,-0.747924 2.82391,-2.773379 2.445435,-4.790828 -0.230867,-1.230627 -1.620495,-2.64985 -2.998986,-3.062856 -1.4927,-0.447223 -3.058821,0.01349 -4.215715,1.240154 -3.056221,3.240538 0.624909,8.345153 4.769266,6.61353 z m -3.141733,-2.405199 c -0.709595,-0.709596 -0.807848,-1.359232 -0.355672,-2.351651 0.292769,-0.642558 1.235458,-1.232251 1.96989,-1.232251 0.320658,0 0.330154,0.09049 0.05563,0.530082 -0.486635,0.779225 0.04179,1.464969 1.090592,1.415281 0.652395,-0.03091 0.823464,0.06778 0.823464,0.475047 0,0.803032 -1.179092,1.812923 -2.116666,1.812923 -0.515507,0 -1.057861,-0.240058 -1.467235,-0.649431 z"
     id="path194-3"
     transform="matrix(3.2365575,0,0,3.2365575,-164.22038,-162.21039)" /></svg>
