<?xml version="1.0" encoding="UTF-8" standalone="no"?>
<!-- Created with Inkscape (http://www.inkscape.org/) -->

<svg
   width="64mm"
   height="64mm"
   viewBox="0 0 64 64"
   version="1.1"
   id="svg5"
   xml:space="preserve"
   xmlns="http://www.w3.org/2000/svg"
   xmlns:svg="http://www.w3.org/2000/svg"><defs
     id="defs2"><filter
       style="color-interpolation-filters:sRGB"
       id="filter1"
       x="-0.065065318"
       y="-0.088515194"
       width="1.1301306"
       height="1.1770304"><feGaussianBlur
         stdDeviation="0.4629769"
         id="feGaussianBlur1" /></filter><filter
       style="color-interpolation-filters:sRGB"
       id="filter8"
       x="-0.11238155"
       y="-0.11343419"
       width="1.2244656"
       height="1.2270659"><feGaussianBlur
         stdDeviation="1.8160828"
         id="feGaussianBlur8" /></filter></defs><path
     id="glow"
     style="fill-opacity:1;stroke-width:6;stroke-linejoin:round;stroke-dasharray:none;stroke-opacity:1;filter:url(#filter8)"
     d="m 20.44265,3.0293625 c -1.039835,0.06421 -2.020924,0.915679 -2.127002,2.074809 -0.05923,0.647143 0.0459,0.889814 2.473751,5.6725225 l 2.536279,4.996078 -1.017508,0.384472 c -1.649929,0.623245 -3.640722,1.672556 -5.292701,2.788977 l -1.543575,1.042314 -4.358907,-3.861263 C 8.7159409,14.003499 6.5254419,12.109768 6.2450679,11.918227 c -0.425784,-0.290973 -0.631784,-0.338365 -1.251086,-0.288355 -1.593458,0.128686 -2.579921,1.709131 -1.926498,3.086117 0.210104,0.442759 1.594653,1.713249 8.6806071,7.964371 l 0.413411,0.364319 -1.029911,1.246952 c -1.3677304,1.655928 -2.8224741,3.869691 -3.6736771,5.590361 -0.611722,1.23656 -0.638204,1.48271 -0.638204,2.11149 0,0.62879 0.02648,0.87494 0.638204,2.1115 0.851203,1.72067 2.3059467,3.93392 3.6736771,5.58984 l 1.029911,1.24696 -0.413411,0.36483 c -7.0859541,6.25112 -8.4705031,7.5211 -8.6806071,7.96386 -0.653423,1.37698 0.33304,2.95743 1.926498,3.08611 0.619302,0.05 0.825302,0.003 1.251086,-0.28835 0.280374,-0.19154 2.470873,-2.08527 4.8679191,-4.20905 l 4.358907,-3.86126 1.543575,1.04283 c 1.651979,1.11642 3.642772,2.16522 5.292701,2.78846 l 1.017508,0.38499 -2.536279,4.99608 c -2.42785,4.78271 -2.532981,5.02486 -2.473751,5.672 0.141437,1.54551 1.838103,2.54496 3.15588,1.85932 0.208109,-0.10827 0.511348,-0.34431 0.674378,-0.52503 0.163028,-0.18073 1.509225,-2.71119 2.991031,-5.62395 l 2.69441,-5.29683 1.212845,0.1111 c 1.547817,0.14208 4.354401,0.14343 5.976897,0.002 l 1.260905,-0.11059 2.556433,5.08445 c 1.405624,2.79629 2.681188,5.29009 2.835486,5.54126 1.130347,1.84006 4.066418,1.03068 4.066418,-1.12086 0,-0.58619 -0.303156,-1.27534 -2.455664,-5.57899 -1.350842,-2.70082 -2.419245,-4.97043 -2.374015,-5.04362 0.04524,-0.0732 0.150104,-0.13281 0.232544,-0.13281 0.305457,0 2.88544,-1.16965 4.071586,-1.84536 0.674211,-0.38408 1.703347,-1.04082 2.286682,-1.45934 l 1.060917,-0.7612 4.075203,3.60908 c 2.241499,1.98487 4.305549,3.80806 4.586801,4.05144 1.942456,1.68089 4.697652,-0.0862 3.733105,-2.39469 -0.13696,-0.32777 -1.543662,-1.6661 -4.589384,-4.36459 -2.415369,-2.14001 -4.413112,-3.90685 -4.439522,-3.92638 -0.0264,-0.0195 0.374759,-0.52873 0.891418,-1.13171 1.228996,-1.43432 2.947735,-4.03677 3.800285,-5.75262 0.561253,-1.12958 0.679444,-1.49748 0.673344,-2.07894 0.0061,-0.58146 -0.112091,-0.94988 -0.673344,-2.07946 -0.85255,-1.715855 -2.571289,-4.318301 -3.800285,-5.752622 -0.516659,-0.602978 -0.917818,-1.112194 -0.891418,-1.131714 0.02641,-0.01953 2.024153,-1.786365 4.439522,-3.926375 3.045722,-2.698494 4.452424,-4.036305 4.589384,-4.364075 0.964547,-2.30847 -1.790649,-4.076095 -3.733105,-2.395203 -0.281252,0.243382 -2.345302,2.067084 -4.586801,4.051949 l -4.075203,3.609082 -1.060917,-0.76171 c -0.583335,-0.418522 -1.612471,-1.075266 -2.286682,-1.459343 -1.186146,-0.675708 -3.766129,-1.844848 -4.071586,-1.844848 -0.08244,0 -0.187304,-0.06014 -0.232544,-0.133325 -0.04523,-0.07319 1.023173,-2.342276 2.374015,-5.043104 2.152508,-4.3036485 2.455664,-4.9927925 2.455664,-5.5789875 0,-2.151539 -2.936071,-2.96092 -4.066418,-1.120862 -0.154298,0.251176 -1.429862,2.744453 -2.835486,5.540747 l -2.556433,5.0844115 -1.260905,-0.110071 c -1.622496,-0.141358 -4.42908,-0.140009 -5.976897,0.0021 l -1.212845,0.111204 -2.69441,-5.2968345 c -1.481806,-2.912792 -2.828003,-5.44377 -2.991031,-5.624495 -0.16303,-0.180727 -0.466269,-0.416243 -0.674378,-0.524516 -0.329444,-0.17141 -0.682266,-0.237411 -1.028878,-0.216008 z M 32.033674,18.92245 c 1.170629,0.0017 2.350547,0.173252 3.516065,0.522449 4.305369,1.289922 8.645299,5.722788 9.366353,9.566341 1.182072,6.300992 -2.046537,12.626962 -7.63726,14.962912 C 24.334977,49.382442 12.837764,33.439572 22.3831,23.318564 25.09305,20.445179 28.521789,18.91745 32.033674,18.92245 Z m 0.47439,6.346383 c -2.293814,0 -5.238205,1.841476 -6.152596,3.848344 -1.412259,3.099565 -1.105716,5.128525 1.110526,7.344775 1.278576,1.27857 2.97261,2.0283 4.582666,2.0283 2.928276,0 6.610966,-3.15412 6.610966,-5.66219 0,-1.272 -0.534345,-1.58017 -2.571936,-1.48363 -3.275668,0.15519 -4.925876,-1.98669 -3.405993,-4.420403 0.857405,-1.372955 0.827861,-1.655196 -0.173633,-1.655196 z"
     transform="matrix(0.90349159,0,0,0.90349159,3.0872878,3.0889526)" /><path
     id="foreground"
     style="fill-opacity:1;stroke-width:0;stroke-linejoin:round;stroke-dasharray:none;stroke-opacity:1"
     d="m 21.549216,5.8311262 c -0.939482,0.058012 -1.825888,0.8273083 -1.921728,1.8745723 -0.05351,0.5846886 0.04147,0.8039391 2.235013,5.1250755 l 2.291507,4.513915 -0.91931,0.347368 c -1.490697,0.563096 -3.289362,1.51114 -4.781911,2.519817 L 17.05818,21.153596 13.119944,17.664977 C 10.954233,15.746166 8.9751359,14.035196 8.7218205,13.86214 8.3371278,13.599249 8.1510083,13.55643 7.5914744,13.601614 c -1.4396759,0.116267 -2.3309366,1.544185 -1.7405742,2.788281 0.1898264,0.400029 1.4407553,1.547906 7.8428548,7.195742 l 0.373514,0.329159 -0.930516,1.126611 c -1.235733,1.496117 -2.550082,3.496233 -3.3191365,5.05084 -0.5526861,1.117223 -0.5766119,1.339619 -0.5766119,1.907722 0,0.568103 0.023926,0.790499 0.5766119,1.907721 0.7690545,1.554608 2.0834035,3.554257 3.3191365,5.050374 l 0.930516,1.12661 -0.373514,0.329627 c -6.4020995,5.647836 -7.6530284,6.795246 -7.8428548,7.195276 -0.5903624,1.244094 0.3008983,2.672013 1.7405742,2.78828 0.5595339,0.04518 0.7456534,0.0023 1.1303461,-0.260526 0.2533154,-0.173056 2.2324125,-1.884026 4.3981235,-3.802838 l 3.938236,-3.488618 1.394607,0.942189 c 1.492549,1.008676 3.291214,1.956253 4.781911,2.51935 l 0.91931,0.347834 -2.291507,4.513915 c -2.193542,4.321136 -2.288527,4.53992 -2.235013,5.124609 0.127787,1.396351 1.66071,2.299348 2.851311,1.679878 0.188024,-0.09782 0.461998,-0.311078 0.609295,-0.474363 0.147294,-0.163284 1.363572,-2.449535 2.702371,-5.081188 l 2.434377,-4.785645 1.095795,0.100382 c 1.39844,0.128365 3.934165,0.129584 5.400076,0.0019 l 1.139217,-0.09992 2.309716,4.593753 c 1.269969,2.526428 2.422431,4.77955 2.561838,5.006485 1.021259,1.662477 3.673974,0.931208 3.673974,-1.012689 0,-0.529622 -0.273899,-1.152258 -2.218672,-5.040569 -1.220474,-2.440174 -2.185767,-4.490741 -2.144902,-4.556867 0.04087,-0.06613 0.135617,-0.119992 0.210101,-0.119992 0.275978,0 2.606971,-1.056775 3.678644,-1.667272 0.609144,-0.34701 1.53896,-0.940373 2.065998,-1.318504 l 0.958529,-0.687732 3.681912,3.260775 c 2.025176,1.79331 3.890027,3.440542 4.144136,3.660436 1.754993,1.518671 4.244289,-0.0779 3.372829,-2.163579 -0.123742,-0.296138 -1.394685,-1.505306 -4.14647,-3.943372 -2.182265,-1.93348 -3.987209,-3.529802 -4.01107,-3.547447 -0.02385,-0.01764 0.338591,-0.477709 0.805388,-1.022494 1.110388,-1.295897 2.663254,-3.647185 3.433526,-5.197444 0.507087,-1.02057 0.613872,-1.352964 0.60836,-1.878307 0.0055,-0.525344 -0.101273,-0.858205 -0.60836,-1.878775 -0.770272,-1.550259 -2.323138,-3.901547 -3.433526,-5.197444 -0.466797,-0.544785 -0.829241,-1.004858 -0.805388,-1.022494 0.02386,-0.01764 1.828805,-1.613966 4.01107,-3.547447 2.751785,-2.438066 4.022728,-3.646767 4.14647,-3.942905 0.87146,-2.085683 -1.617836,-3.682718 -3.372829,-2.164045 -0.254109,0.219893 -2.11896,1.867593 -4.144136,3.660901 l -3.681912,3.260778 -0.958529,-0.688199 c -0.527038,-0.378131 -1.456854,-0.971494 -2.065998,-1.318504 -1.071673,-0.610497 -3.402666,-1.666805 -3.678644,-1.666805 -0.07448,0 -0.169227,-0.05434 -0.210101,-0.120458 -0.04087,-0.06613 0.924428,-2.116226 2.144902,-4.556402 1.944773,-3.8883104 2.218672,-4.5109456 2.218672,-5.0405683 0,-1.9438972 -2.652715,-2.6751663 -3.673974,-1.0126893 -0.139407,0.2269353 -1.291869,2.4795899 -2.561838,5.0060186 l -2.309716,4.593723 -1.139217,-0.09945 c -1.465911,-0.127716 -4.001636,-0.126497 -5.400076,0.0019 l -1.095795,0.100352 -2.434377,-4.785646 C 24.451666,8.9501842 23.235388,6.663467 23.088094,6.5001828 22.940797,6.3368977 22.666823,6.1241108 22.478799,6.0262872 22.181149,5.8714196 21.862377,5.8117887 21.549216,5.8311262 Z M 32.021609,20.190397 c 1.057653,0.0015 2.123699,0.156532 3.176735,0.472028 3.889865,1.165434 7.810955,5.170491 8.462421,8.643109 1.067992,5.692895 -1.849029,11.408352 -6.9002,13.518864 -11.694664,4.886344 -22.082299,-9.517907 -13.458169,-18.662149 2.448417,-2.596079 5.546254,-3.97637 8.719213,-3.971852 z m 0.428607,5.733904 c -2.072441,0 -4.732674,1.663758 -5.558819,3.476946 -1.275964,2.800435 -0.999005,4.633582 1.003351,6.635939 1.155183,1.155181 2.685728,1.832552 4.140401,1.832552 2.645672,0 5.972952,-2.84972 5.972952,-5.115739 0,-1.149236 -0.482777,-1.42767 -2.323723,-1.340447 -2.959538,0.140211 -4.450487,-1.794957 -3.077286,-3.993796 0.774658,-1.240453 0.747966,-1.495455 -0.156876,-1.495455 z" /></svg>
