<?xml version="1.0" encoding="UTF-8" standalone="no"?>
<!-- Created with Inkscape (http://www.inkscape.org/) -->

<svg
   width="64mm"
   height="64mm"
   viewBox="0 0 64 64"
   version="1.1"
   id="svg5"
   xml:space="preserve"
   xmlns="http://www.w3.org/2000/svg"
   xmlns:svg="http://www.w3.org/2000/svg"><defs
     id="defs2"><filter
       style="color-interpolation-filters:sRGB"
       id="filter1"
       x="-0.065065318"
       y="-0.088515194"
       width="1.1301306"
       height="1.1770304"><feGaussianBlur
         stdDeviation="0.4629769"
         id="feGaussianBlur1" /></filter><filter
       style="color-interpolation-filters:sRGB"
       id="filter2"
       x="-0.11768968"
       y="-0.10815107"
       width="1.2363162"
       height="1.2170949"><feGaussianBlur
         stdDeviation="1.6054201"
         id="feGaussianBlur2" /></filter></defs><path
     style="fill-opacity:1;stroke-width:6;stroke-dasharray:none;stroke-opacity:1;filter:url(#filter2)"
     d="M 26.628756,58.151113 C 6.5160796,53.57739 0.57035363,27.607018 16.684224,14.714332 c 2.864041,-2.291519 5.461048,-1.595248 6.513637,-0.398904 1.237023,1.405971 1.511364,3.729827 -1.587064,6.247558 -12.6920894,10.31338 -5.898089,30.400734 10.291658,30.42866 16.382899,0.02825 23.191722,-19.850141 10.43084,-30.45285 -2.293035,-1.510151 -3.30431,-4.533247 -2.093793,-6.115597 1.420811,-1.85724 4.393486,-2.012311 7.774212,0.89826 19.196565,16.526969 3.264744,48.435121 -21.384958,42.829654 z M 30.521071,41.972938 C 29.771724,41.657936 29.070229,40.95314 28.606978,40.049822 28.138538,39.136373 27.978787,9.4308036 28.42972,7.8070116 c 0.864806,-3.114139 5.353441,-3.628939 6.825239,-0.782783 0.603219,1.166489 0.457351,32.5885704 -0.158012,33.4927284 -0.97995,1.439852 -3.048494,2.098035 -4.575876,1.455981 z"
     id="glow" /><path
     style="stroke:none;stroke-width:0;stroke-dasharray:none;stroke-opacity:1"
     d="M 26.651754,58.172378 C 6.5390779,53.598655 0.59335146,27.628283 16.707222,14.735597 c 2.864041,-2.291519 5.461048,-1.595248 6.513637,-0.398904 1.237023,1.405971 1.511364,3.729827 -1.587064,6.247558 -12.6920891,10.31338 -5.898089,30.400734 10.291658,30.42866 16.382899,0.02825 23.191722,-19.850141 10.43084,-30.45285 -2.293035,-1.510151 -3.30431,-4.533247 -2.093793,-6.115597 1.420811,-1.85724 4.393486,-2.012311 7.774212,0.89826 19.196567,16.526969 3.264744,48.435121 -21.384958,42.829654 z M 30.544069,41.994203 C 29.794722,41.679201 29.093227,40.974405 28.629976,40.071087 28.161536,39.157638 28.001785,9.4520687 28.452718,7.8282765 c 0.864806,-3.1141388 5.353441,-3.6289381 6.825239,-0.782783 0.603219,1.1664894 0.457351,32.5885705 -0.158012,33.4927285 -0.97995,1.439852 -3.048494,2.098035 -4.575876,1.455981 z"
     id="foreground" /></svg>
