<?xml version="1.0" encoding="UTF-8" standalone="no"?>
<!-- Created with Inkscape (http://www.inkscape.org/) -->

<svg
   width="64mm"
   height="64mm"
   viewBox="0 0 64 64"
   version="1.1"
   id="svg5"
   xml:space="preserve"
   xmlns="http://www.w3.org/2000/svg"
   xmlns:svg="http://www.w3.org/2000/svg"><defs
     id="defs2"><filter
       style="color-interpolation-filters:sRGB"
       id="filter1"
       x="-0.065065318"
       y="-0.088515194"
       width="1.1301306"
       height="1.1770304"><feGaussianBlur
         stdDeviation="0.4629769"
         id="feGaussianBlur1" /></filter><filter
       style="color-interpolation-filters:sRGB"
       id="filter43"
       x="-0.11673918"
       y="-0.10911219"
       width="1.2334784"
       height="1.2190068"><feGaussianBlur
         stdDeviation="1.6268684"
         id="feGaussianBlur43" /></filter></defs><path
     id="glow"
     style="fill-opacity:1;stroke-width:6;stroke-dasharray:none;stroke-opacity:1;filter:url(#filter43)"
     d="m 52.929584,20.948308 -5.704562,5.704561 c 5.269152,10.711481 -1.719533,24.362499 -15.299324,24.339083 -2.762957,-0.0048 -5.244387,-0.604928 -7.409884,-1.629875 l -5.598107,5.598108 c 2.27579,1.431072 4.854008,2.536119 7.733894,3.19102 22.073563,5.01964 37.151521,-20.041556 26.277983,-37.202897 z M 9.717237,44.363933 15.603697,38.47747 c -1.5929,-6.066394 0.0672,-13.06876 6.030123,-17.914152 3.098425,-2.517728 2.824005,-4.841711 1.586983,-6.24768 -1.052588,-1.196343 -3.649776,-1.892575 -6.513816,0.398942 -9.59084,7.673616 -11.36413,19.97898 -6.98975,29.649353 z m 25.715224,-5.918502 -5.488038,5.488037 c 0.194287,0.140976 0.394049,0.261956 0.599447,0.348299 1.527381,0.642054 3.595999,-0.01587 4.575948,-1.455725 0.126739,-0.186218 0.228177,-1.980765 0.312643,-4.380611 z M 28.201377,25.87979 35.653119,18.428048 C 35.621099,12.379024 35.501503,7.4569151 35.277948,7.0246101 33.806152,4.1784571 29.31733,4.6933721 28.452525,7.8075081 28.222162,8.6370351 28.153255,17.38606 28.201377,25.87979 Z M 53.384764,6.7446701 a 3.8499999,3.8499999 0 0 0 -2.722657,1.126953 L 7.892577,50.641154 a 3.8499999,3.8499999 0 0 0 0,5.445313 3.8499999,3.8499999 0 0 0 5.44531,0 L 56.10742,13.316936 a 3.8499999,3.8499999 0 0 0 0,-5.4453129 3.8499999,3.8499999 0 0 0 -2.722656,-1.126953 z m -4.21e-4,3.8500319 -42.768686,42.768686" /><path
     id="foreground"
     style="stroke-width:0"
     d="m 52.929585,20.969295 -5.704562,5.704561 c 5.269152,10.711481 -1.719533,24.362499 -15.299324,24.339083 -2.762957,-0.0048 -5.244387,-0.604928 -7.409884,-1.629875 l -5.598106,5.598108 c 2.27579,1.431072 4.854007,2.536119 7.733893,3.19102 22.073563,5.01964 37.151521,-20.041556 26.277983,-37.202897 z M 9.7172393,44.38492 15.603699,38.498457 c -1.5929,-6.066394 0.0672,-13.06876 6.030122,-17.914152 3.098425,-2.517728 2.824005,-4.841711 1.586983,-6.24768 C 22.168216,13.140282 19.571029,12.44405 16.706989,14.735567 7.1161493,22.409183 5.3428593,34.714547 9.7172393,44.38492 Z m 25.7152227,-5.918502 -5.488038,5.488037 c 0.194287,0.140976 0.394049,0.261956 0.599447,0.348299 1.527381,0.642054 3.595999,-0.01587 4.575948,-1.455725 0.126739,-0.186218 0.228177,-1.980765 0.312643,-4.380611 z M 28.201378,25.900777 35.65312,18.449035 C 35.6211,12.400011 35.501504,7.4779032 35.277949,7.0455972 33.806153,4.1994452 29.317331,4.7143602 28.452526,7.8284952 28.222163,8.6580232 28.153256,17.407047 28.201378,25.900777 Z M 53.384765,6.7656582 a 3.8499999,3.8499999 0 0 0 -2.722657,1.126953 L 7.8925793,50.662141 a 3.8499999,3.8499999 0 0 0 0,5.445313 3.8499999,3.8499999 0 0 0 5.4453097,0 L 56.107421,13.337923 a 3.8499999,3.8499999 0 0 0 0,-5.4453118 3.8499999,3.8499999 0 0 0 -2.722656,-1.126953 z m -4.21e-4,3.8500308 -42.768685,42.768686" /></svg>
