<?xml version="1.0" encoding="UTF-8" standalone="no"?>
<!-- Created with Inkscape (http://www.inkscape.org/) -->

<svg
   width="64mm"
   height="64mm"
   viewBox="0 0 64 64"
   version="1.1"
   id="svg5"
   xml:space="preserve"
   sodipodi:docname="stop.svg"
   inkscape:version="1.3.2 (091e20e, 2023-11-25)"
   xmlns:inkscape="http://www.inkscape.org/namespaces/inkscape"
   xmlns:sodipodi="http://sodipodi.sourceforge.net/DTD/sodipodi-0.dtd"
   xmlns="http://www.w3.org/2000/svg"
   xmlns:svg="http://www.w3.org/2000/svg"><sodipodi:namedview
     id="namedview1"
     pagecolor="#ffffff"
     bordercolor="#000000"
     borderopacity="0.25"
     inkscape:showpageshadow="2"
     inkscape:pageopacity="0.0"
     inkscape:pagecheckerboard="0"
     inkscape:deskcolor="#d1d1d1"
     inkscape:document-units="mm"
     showgrid="false"
     inkscape:zoom="0.42963053"
     inkscape:cx="272.32702"
     inkscape:cy="526.03338"
     inkscape:window-width="1512"
     inkscape:window-height="945"
     inkscape:window-x="0"
     inkscape:window-y="37"
     inkscape:window-maximized="0"
     inkscape:current-layer="svg5" /><defs
     id="defs2"><filter
       style="color-interpolation-filters:sRGB"
       id="filter1"
       x="-0.065065318"
       y="-0.088515194"
       width="1.1301306"
       height="1.1770304"><feGaussianBlur
         stdDeviation="0.4629769"
         id="feGaussianBlur1" /></filter><filter
       style="color-interpolation-filters:sRGB"
       id="filter2"
       x="-0.078476331"
       y="-0.071818594"
       width="1.1569527"
       height="1.1436372"><feGaussianBlur
         stdDeviation="1.6054201"
         id="feGaussianBlur2" /></filter><filter
       inkscape:collect="always"
       style="color-interpolation-filters:sRGB"
       id="filter6"
       x="-0.07507604"
       y="-0.07492411"
       width="1.1501521"
       height="1.1498482"><feGaussianBlur
         inkscape:collect="always"
         stdDeviation="1.5235025"
         id="feGaussianBlur6" /></filter></defs><path
     style="fill:#000000;filter:url(#filter6);stroke-width:6;stroke-dasharray:none"
     d="m 29.884455,56.342001 c -3.077959,-0.290142 -6.249642,-1.198755 -8.879903,-2.543884 -2.294114,-1.173222 -3.916658,-2.345519 -5.825686,-4.209091 -1.62604,-1.587323 -2.426953,-2.51649 -3.34848,-3.884684 -2.1188805,-3.145913 -3.4437325,-6.609593 -4.0164025,-10.500451 -0.218331,-1.483391 -0.220896,-4.794497 -0.0049,-6.332305 0.502378,-3.576833 1.711134,-6.983818 3.4519235,-9.729553 1.342792,-2.117974 3.574979,-4.628603 5.4797,-6.163232 3.550794,-2.860867 7.790378,-4.6571379 12.424545,-5.2641599 1.17326,-0.153684 4.578315,-0.153868 5.753671,-3.12e-4 4.449466,0.581308 8.596654,2.2871449 12.130657,4.9896259 0.81047,0.619771 3.1114,2.878263 3.92187,3.84954 2.15391,2.58125 3.86556,5.980655 4.75545,9.444521 0.55916,2.176478 0.62445,2.808164 0.62445,6.041355 0,2.83639 -0.0119,3.034304 -0.25944,4.315254 -0.6695,3.464403 -1.84314,6.350112 -3.76052,9.246293 -0.9566,1.444922 -1.78058,2.398881 -3.58321,4.148458 -3.55873,3.453993 -8.073257,5.644327 -13.301837,6.453711 -1.184069,0.183294 -4.272719,0.260436 -5.561882,0.138914 z M 27.642607,41.901802 32.125954,37.428 l 4.528812,4.473802 c 2.490846,2.460591 4.590898,4.473802 4.666782,4.473802 0.198918,0 4.721136,-4.550626 4.721136,-4.750794 0,-0.09304 -1.99325,-2.167596 -4.479385,-4.662118 l -4.479384,-4.49449 4.479384,-4.486072 c 2.485105,-2.488817 4.479385,-4.560609 4.479385,-4.653491 0,-0.19321 -4.530717,-4.762449 -4.722298,-4.762449 -0.07,0 -2.166944,2.012485 -4.659881,4.472189 l -4.532612,4.47219 -4.489947,-4.47219 C 25.168475,20.578675 23.091358,18.56619 23.02213,18.56619 c -0.146682,0 -4.788861,4.615218 -4.788861,4.761049 0,0.05393 2.010302,2.133076 4.467337,4.620323 l 4.467337,4.522267 -4.386997,4.451397 c -2.412848,2.448268 -4.427161,4.523167 -4.476251,4.610885 -0.07242,0.129415 0.351405,0.601109 2.247653,2.501491 1.285299,1.288101 2.397658,2.342002 2.471909,2.342002 0.07425,0 2.152509,-2.013211 4.61835,-4.473802 z"
     id="glow" /><path
     style="fill:#d94242;fill-opacity:1"
     d="M 29.884459,56.342001 C 26.8065,56.051859 23.634817,55.143246 21.004556,53.798117 18.710442,52.624895 17.087898,51.452598 15.17887,49.589026 13.55283,48.001703 12.751917,47.072536 11.83039,45.704342 9.7115085,42.558429 8.3866574,39.094749 7.8139866,35.203891 7.5956557,33.7205 7.5930904,30.409394 7.8090806,28.871586 c 0.502378,-3.576833 1.7111339,-6.983818 3.4519244,-9.729553 1.342792,-2.117974 3.574979,-4.628603 5.4797,-6.163232 3.550794,-2.860867 7.790378,-4.6571379 12.424545,-5.2641603 1.17326,-0.1536836 4.578315,-0.1538678 5.753671,-3.114e-4 4.449466,0.5813082 8.596654,2.2871447 12.130659,4.9896257 0.810467,0.619771 3.111395,2.878263 3.92187,3.84954 2.153905,2.58125 3.865555,5.980655 4.755451,9.444521 0.559155,2.176478 0.624448,2.808164 0.624448,6.041355 0,2.83639 -0.0119,3.034304 -0.259444,4.315254 -0.669501,3.464403 -1.843136,6.350112 -3.760522,9.246293 -0.956596,1.444922 -1.78057,2.398881 -3.583202,4.148458 -3.55873,3.453993 -8.07326,5.644327 -13.30184,6.453711 -1.184069,0.183294 -4.272719,0.260436 -5.561882,0.138914 z M 27.642611,41.901802 32.125958,37.428 36.65477,41.901802 c 2.490846,2.460591 4.590898,4.473802 4.666782,4.473802 0.198918,0 4.721135,-4.550626 4.721135,-4.750794 0,-0.09304 -1.993247,-2.167596 -4.479384,-4.662118 l -4.479384,-4.49449 4.479384,-4.486072 c 2.485107,-2.488817 4.479384,-4.560609 4.479384,-4.653491 0,-0.19321 -4.530716,-4.762449 -4.722297,-4.762449 -0.07,0 -2.166944,2.012485 -4.659881,4.472189 l -4.532612,4.47219 -4.489947,-4.47219 c -2.469471,-2.459704 -4.546588,-4.472189 -4.615816,-4.472189 -0.146682,0 -4.788861,4.615218 -4.788861,4.761049 0,0.05393 2.010302,2.133076 4.467337,4.620323 l 4.467337,4.522267 -4.386997,4.451397 c -2.412848,2.448268 -4.427161,4.523167 -4.476251,4.610885 -0.07242,0.129415 0.351405,0.601109 2.247653,2.501491 1.285299,1.288101 2.397658,2.342002 2.471909,2.342002 0.07425,0 2.152509,-2.013211 4.61835,-4.473802 z"
     id="foreground" /></svg>
