<?xml version="1.0" encoding="UTF-8" standalone="no"?>
<svg
   xmlns:dc="http://purl.org/dc/elements/1.1/"
   xmlns:cc="http://creativecommons.org/ns#"
   xmlns:rdf="http://www.w3.org/1999/02/22-rdf-syntax-ns#"
   xmlns:svg="http://www.w3.org/2000/svg"
   xmlns="http://www.w3.org/2000/svg"
   width="24"
   height="24"
   viewBox="0 0 6.3499999 6.3500002"
   version="1.1"
   id="svg8">
  <defs
     id="defs2" />
  <metadata
     id="metadata5">
    <rdf:RDF>
      <cc:Work
         rdf:about="">
        <dc:format>image/svg+xml</dc:format>
        <dc:type
           rdf:resource="http://purl.org/dc/dcmitype/StillImage" />
        <dc:title></dc:title>
      </cc:Work>
    </rdf:RDF>
  </metadata>
  <path
     id="eyefill"
     style="opacity:1;fill-opacity:1;stroke:none;stroke-width:3.54330707;stroke-linecap:round;stroke-linejoin:round;stroke-miterlimit:4;stroke-dasharray:none;stroke-dashoffset:0;stroke-opacity:1"
     d="M 3.1749995,2.6075948 C 2.861586,2.6074906 2.6074881,2.8615885 2.6075923,3.175002 2.607488,3.4884156 2.8615859,3.7425136 3.1749995,3.7424094 3.4884131,3.7425137 3.7425112,3.4884156 3.7424069,3.175002 l 0,-0.00207 C 3.6716816,3.2281025 3.5845754,3.2581077 3.4948768,3.258198 3.2722706,3.2581818 3.0918167,3.0777279 3.0918005,2.8551217 3.0918908,2.7654231 3.121896,2.6783169 3.1770665,2.6075916 l -0.00207,0 z m 6e-7,-1.5492614 C 1.3229167,1.0583334 0,3.1750001 0,3.1750001 c 0,0 1.3229167,2.1166667 3.1750001,2.1166667 1.8520834,0 3.1750001,-2.1166667 3.1750001,-2.1166667 0,0 -1.3229167,-2.1166667 -3.1750001,-2.1166667 z m 0,0.6433224 c 0.6945411,0 1.4733442,0.7788032 1.4733442,1.4733443 0,0.6945411 -0.7788031,1.4733442 -1.4733442,1.4733442 -0.6945411,0 -1.4733443,-0.7788031 -1.4733443,-1.4733442 0,-0.6945412 0.7788031,-1.4733443 1.4733443,-1.4733443 z" 
	 fill="#000000"/>
</svg>
